# xmcd
#
# Track frame offsets:
#	150
#	15744
#	30766
#	52426
#	70387
#	86562
#	101644
#	119647
#	135848
#	149512
#	165106
#	180128
#	201788
#	219749
#	235924
#	251006
#	269009
#	285210
#
# Disc length: 3984
#
# Revision: 2
# Processed by: cddbd v1.5.2PL0 Copyright (c) Steve Scherf et al.
# Submitted via: kJams Pro 1.0b99
#
DISCID=000f8e12
DTITLE=Various Artist - NSC 3040
DYEAR=2004
DGENRE=Karaoke
TTITLE0=Willie Nelson and Toby Keith - Beer For My Horses
TTITLE1=George Strait - Tell Me Something Bad About Tulsa
TTITLE2=Shania Twain - Forever And For Always
TTITLE3=Brooks and Dunn - Red Dirt Road
TTITLE4=Vince Gill - Someday
TTITLE5=Blake Shelton - Heavy Liftin'
TTITLE6=Emerson Drive - Only God (Could Stop Me From Loving You)
TTITLE7=Jennifer Hanson - This Far Gone
TTITLE8=Mchayes - It Doesn't Mean I Don't Love You
TTITLE9=Willie Nelson and Toby Keith – Vocals - Beer For My Horses
TTITLE10=George Strait – Vocals - Tell Me Something Bad About Tulsa
TTITLE11=Shania Twain – Vocals - Forever And For Always
TTITLE12=Brooks and Dunn – Vocals - Red Dirt Road
TTITLE13=Vince Gill – Vocals - Someday
TTITLE14=Blake Shelton – Vocals - Heavy Liftin'
TTITLE15=Emerson Drive – Vocals - Only God (Could Stop Me From Loving You)
TTITLE16=Jennifer Hanson – Vocals - This Far Gone
TTITLE17=McHayes – Vocals - It Doesn't Mean I Don't Love You
EXTD=
EXTT0=
EXTT1=
EXTT2=
EXTT3=
EXTT4=
EXTT5=
EXTT6=
EXTT7=
EXTT8=
EXTT9=
EXTT10=
EXTT11=
EXTT12=
EXTT13=
EXTT14=
EXTT15=
EXTT16=
EXTT17=
PLAYORDER=
